<svg width="200" height="20" viewBox="0 0 200 20" fill="none" xmlns="http://www.w3.org/2000/svg">
<path d="M9.25394 4.76573C11.0486 4.76573 12.4788 5.32798 13.5444 6.45248C14.61 7.57697 15.1428 9.15663 15.1428 11.1914V19.8126H11.2169V11.6198C11.2169 10.4418 10.8991 9.53146 10.2635 8.88889C9.62784 8.22847 8.75853 7.89826 7.65553 7.89826C6.53384 7.89826 5.63649 8.24632 4.96348 8.94244C4.29046 9.63856 3.95396 10.6381 3.95396 11.9411V19.8126H0V4.97992H3.95396V7.95181C4.36524 6.95225 5.03826 6.17581 5.973 5.62249C6.92643 5.05132 8.02008 4.76573 9.25394 4.76573Z" fill="#292D32"/>
<path d="M25.8006 4.7925C27.3149 4.7925 28.6703 5.09594 29.8667 5.70281C31.0819 6.30968 32.0353 7.19322 32.7271 8.35341C33.4188 9.49576 33.7646 10.8434 33.7646 12.3963C33.7646 13.9491 33.4188 15.2967 32.7271 16.4391C32.0353 17.5814 31.0819 18.465 29.8667 19.0897C28.6703 19.6966 27.3149 20 25.8006 20C24.2863 20 22.9216 19.6966 21.7064 19.0897C20.51 18.465 19.5659 17.5814 18.8742 16.4391C18.1825 15.2967 17.8366 13.9491 17.8366 12.3963C17.8366 10.8434 18.1825 9.49576 18.8742 8.35341C19.5659 7.19322 20.51 6.30968 21.7064 5.70281C22.9216 5.09594 24.2863 4.7925 25.8006 4.7925ZM25.8006 8.0589C24.6976 8.0589 23.7629 8.43373 22.9964 9.1834C22.2299 9.91522 21.8467 10.9862 21.8467 12.3963C21.8467 13.8063 22.2299 14.8862 22.9964 15.6359C23.7629 16.3677 24.6976 16.7336 25.8006 16.7336C26.9036 16.7336 27.8384 16.3677 28.6048 15.6359C29.3713 14.8862 29.7546 13.8063 29.7546 12.3963C29.7546 10.9862 29.3713 9.91522 28.6048 9.1834C27.8384 8.43373 26.9036 8.0589 25.8006 8.0589Z" fill="#292D32"/>
<path d="M45.8129 4.76573C47.6076 4.76573 49.0378 5.32798 50.1034 6.45248C51.169 7.57697 51.7018 9.15663 51.7018 11.1914V19.8126H47.7759V11.6198C47.7759 10.4418 47.4581 9.53146 46.8224 8.88889C46.1868 8.22847 45.3175 7.89826 44.2145 7.89826C43.0928 7.89826 42.1955 8.24632 41.5225 8.94244C40.8494 9.63856 40.5129 10.6381 40.5129 11.9411V19.8126H36.559V4.97992H40.5129V7.95181C40.9242 6.95225 41.5972 6.17581 42.532 5.62249C43.4854 5.05132 44.5791 4.76573 45.8129 4.76573Z" fill="#292D32"/>
<path d="M103.901 4.76573C105.789 4.76573 107.275 5.32798 108.36 6.45248C109.463 7.55913 110.014 9.13878 110.014 11.1914V19.8126H106.088V11.6198C106.088 10.4775 105.78 9.60286 105.163 8.99598C104.565 8.37126 103.733 8.0589 102.667 8.0589C101.564 8.0589 100.685 8.38911 100.031 9.04953C99.3768 9.70995 99.0497 10.6738 99.0497 11.9411V19.8126H95.1238V11.6198C95.1238 10.4775 94.8153 9.60286 94.1984 8.99598C93.6001 8.37126 92.7682 8.0589 91.7026 8.0589C90.5996 8.0589 89.721 8.38911 89.0666 9.04953C88.4123 9.70995 88.0852 10.6738 88.0852 11.9411V19.8126H84.1312V4.97992H88.0852V7.79116C88.4964 6.82731 89.1414 6.08657 90.0201 5.56894C90.9174 5.03347 91.955 4.76573 93.1328 4.76573C94.3853 4.76573 95.4696 5.05132 96.3857 5.62249C97.3204 6.19366 98.0215 7.01473 98.4888 8.08568C98.9749 7.06827 99.6947 6.26506 100.648 5.67604C101.62 5.06916 102.705 4.76573 103.901 4.76573Z" fill="#292D32"/>
<path d="M128.098 11.834C128.098 12.2088 128.051 12.6372 127.958 13.1191H116.573C116.629 14.44 117.003 15.4128 117.694 16.0375C118.386 16.6622 119.246 16.9746 120.274 16.9746C121.19 16.9746 121.947 16.7604 122.546 16.332C123.162 15.9036 123.555 15.3235 123.723 14.5917H127.902C127.696 15.627 127.257 16.5551 126.584 17.3762C125.911 18.1972 125.041 18.8398 123.976 19.3039C122.929 19.768 121.76 20 120.47 20C118.956 20 117.61 19.6966 116.432 19.0897C115.255 18.465 114.339 17.5814 113.684 16.4391C113.03 15.2967 112.703 13.9491 112.703 12.3963C112.703 10.8434 113.03 9.49576 113.684 8.35341C114.339 7.19322 115.255 6.30968 116.432 5.70281C117.61 5.09594 118.956 4.7925 120.47 4.7925C122.003 4.7925 123.34 5.09594 124.48 5.70281C125.64 6.30968 126.528 7.14859 127.145 8.21954C127.78 9.27265 128.098 10.4775 128.098 11.834ZM124.116 11.4592C124.172 10.2454 123.836 9.32619 123.106 8.70147C122.396 8.07675 121.517 7.76439 120.47 7.76439C119.405 7.76439 118.507 8.07675 117.778 8.70147C117.049 9.32619 116.647 10.2454 116.573 11.4592H124.116Z" fill="#292D32"/>
<path d="M134.186 15.8768V19.8126H129.923V15.8768H134.186Z" fill="#292D32"/>
<path d="M143.802 4.7925C145.803 4.7925 147.467 5.31013 148.794 6.34538C150.14 7.38063 150.981 8.79072 151.318 10.5756H147.139C146.971 9.79027 146.588 9.17448 145.99 8.72825C145.392 8.26417 144.634 8.03213 143.718 8.03213C142.671 8.03213 141.793 8.40696 141.082 9.15663C140.391 9.88844 140.045 10.9683 140.045 12.3963C140.045 13.8242 140.391 14.913 141.082 15.6627C141.793 16.3945 142.671 16.7604 143.718 16.7604C144.634 16.7604 145.392 16.5373 145.99 16.091C146.588 15.627 146.971 15.0022 147.139 14.2169H151.318C150.981 16.0018 150.14 17.4119 148.794 18.4471C147.467 19.4824 145.803 20 143.802 20C142.288 20 140.942 19.6966 139.764 19.0897C138.587 18.465 137.671 17.5814 137.016 16.4391C136.362 15.2967 136.035 13.9491 136.035 12.3963C136.035 10.8434 136.362 9.49576 137.016 8.35341C137.671 7.19322 138.587 6.30968 139.764 5.70281C140.942 5.09594 142.288 4.7925 143.802 4.7925Z" fill="#292D32"/>
<path d="M163.381 4.76573C165.176 4.76573 166.606 5.32798 167.672 6.45248C168.737 7.57697 169.27 9.15663 169.27 11.1914V19.8126H165.344V11.6198C165.344 10.4418 165.026 9.53146 164.391 8.88889C163.755 8.22847 162.886 7.89826 161.783 7.89826C160.661 7.89826 159.764 8.24632 159.091 8.94244C158.418 9.63856 158.081 10.6381 158.081 11.9411V19.8126H154.127V0H158.081V7.95181C158.493 6.95225 159.166 6.17581 160.1 5.62249C161.054 5.05132 162.147 4.76573 163.381 4.76573Z" fill="#292D32"/>
<path d="M178.834 4.7925C180.143 4.7925 181.265 5.08701 182.199 5.67604C183.134 6.26506 183.798 7.05935 184.19 8.0589V4.97992H188.116V19.8126H184.19V16.7068C183.798 17.7064 183.134 18.5096 182.199 19.1165C181.265 19.7055 180.143 20 178.834 20C177.526 20 176.348 19.6966 175.301 19.0897C174.254 18.4828 173.431 17.6082 172.833 16.4659C172.254 15.3057 171.964 13.9491 171.964 12.3963C171.964 10.8434 172.254 9.49576 172.833 8.35341C173.431 7.19322 174.254 6.30968 175.301 5.70281C176.348 5.09594 177.526 4.7925 178.834 4.7925ZM180.068 8.08568C178.834 8.08568 177.843 8.46943 177.096 9.23695C176.348 10.0045 175.974 11.0576 175.974 12.3963C175.974 13.7349 176.348 14.788 177.096 15.5556C177.843 16.3052 178.834 16.6801 180.068 16.6801C181.265 16.6801 182.246 16.2963 183.013 15.5288C183.798 14.7434 184.19 13.6992 184.19 12.3963C184.19 11.0754 183.798 10.0312 183.013 9.26372C182.246 8.47836 181.265 8.08568 180.068 8.08568Z" fill="#292D32"/>
<path d="M200 16.573V19.8126H197.925C196.186 19.8126 194.85 19.411 193.915 18.6078C192.999 17.8046 192.541 16.4659 192.541 14.5917V8.166H190.382V4.97992H192.541V1.31191H196.495V4.97992H199.972V8.166H196.495V14.6452C196.495 15.3592 196.644 15.859 196.943 16.1446C197.243 16.4302 197.747 16.573 198.458 16.573H200Z" fill="#292D32"/>
<path d="M73.5819 1.46841C70.5259 1.46841 68.4483 3.4603 68.4483 3.4603C68.4483 3.4603 66.382 1.46841 63.3146 1.46841C59.9125 1.46841 57.1541 4.14378 57.1541 7.44349C57.1541 13.4186 68.4483 19.3936 68.4483 19.3936C68.4483 19.3936 79.7424 13.4186 79.7424 7.44349C79.7424 4.1432 76.9846 1.46841 73.5819 1.46841Z" fill="url(#paint0_radial)"/>
<path d="M73.5819 1.46841C70.5259 1.46841 68.4483 3.4603 68.4483 3.4603C68.4483 3.4603 66.382 1.46841 63.3146 1.46841C59.9125 1.46841 57.1541 4.14378 57.1541 7.44349C57.1541 13.4186 68.4483 19.3936 68.4483 19.3936C68.4483 19.3936 79.7424 13.4186 79.7424 7.44349C79.7424 4.1432 76.9846 1.46841 73.5819 1.46841Z" fill="url(#paint1_linear)"/>
<path opacity="0.69" d="M66.7532 3.44868C67.5105 4.72115 66.5171 6.65332 64.5333 7.76405C62.5496 8.87477 60.3279 8.74376 59.5706 7.47071C58.8133 6.19767 59.8067 4.26608 61.7905 3.15535C63.7743 2.04463 65.9959 2.17564 66.7532 3.44868Z" fill="url(#paint2_radial)"/>
<path opacity="0.015" d="M67.3748 13.3322C65.6672 14.0278 64.452 15.0591 64.4251 16.8875L61.546 14.6899L64.0833 13.3884L67.3748 13.3322Z" fill="#4712B9"/>
<path opacity="0.029" d="M67.3742 13.3322C65.6689 14.018 64.4508 15.0446 64.4024 16.8702L61.5275 14.676L64.1095 13.3867L67.3742 13.3322Z" fill="#4712B9"/>
<path opacity="0.044" d="M67.373 13.3322C65.6702 14.0075 64.4491 15.0307 64.3791 16.8528L61.509 14.662L64.1365 13.3849L67.373 13.3322Z" fill="#4712B9"/>
<path opacity="0.059" d="M67.3724 13.3322C65.6719 13.9971 64.4473 15.0162 64.357 16.8354L61.491 14.6487L64.1639 13.3838L67.3724 13.3322Z" fill="#4712B9"/>
<path opacity="0.073" d="M67.3718 13.3322C65.6743 13.9867 64.446 15.0018 64.3343 16.818L61.4731 14.6348L64.1908 13.382L67.3718 13.3322Z" fill="#4712B9"/>
<path opacity="0.088" d="M67.3706 13.3322C65.6755 13.9762 64.4443 14.9878 64.311 16.8L61.454 14.6203L64.2172 13.3797L67.3706 13.3322Z" fill="#4712B9"/>
<path opacity="0.103" d="M67.37 13.3322C65.6773 13.9658 64.4431 14.9733 64.2883 16.7826L61.4354 14.6064L64.2434 13.3786L67.37 13.3322Z" fill="#4712B9"/>
<path opacity="0.118" d="M67.3694 13.3322C65.6792 13.9554 64.4419 14.9594 64.2656 16.7652L61.4175 14.5925L64.271 13.3768L67.3694 13.3322Z" fill="#4712B9"/>
<path opacity="0.132" d="M67.3682 13.3322C65.6803 13.9449 64.4401 14.9449 64.2422 16.7478L61.3984 14.5791L64.2972 13.3757L67.3682 13.3322Z" fill="#4712B9"/>
<path opacity="0.147" d="M67.3677 13.3322C65.6827 13.9345 64.4389 14.9304 64.2196 16.7304L61.3805 14.5652L64.3242 13.3739L67.3677 13.3322Z" fill="#4712B9"/>
<path opacity="0.162" d="M67.367 13.3328C65.6845 13.9246 64.4377 14.9171 64.1968 16.7136L61.3619 14.5519L64.351 13.3728L67.367 13.3328Z" fill="#4712B9"/>
<path opacity="0.176" d="M67.3659 13.3328C65.6857 13.9142 64.436 14.9026 64.1736 16.6962L61.3434 14.538L64.3774 13.371L67.3659 13.3328Z" fill="#4712B9"/>
<path opacity="0.191" d="M67.3653 13.3328C65.6875 13.9038 64.4347 14.8881 64.1508 16.6783L61.3249 14.5241L64.4042 13.3693L67.3653 13.3328Z" fill="#4712B9"/>
<path opacity="0.206" d="M67.3646 13.3328C65.6893 13.8939 64.4335 14.8742 64.1281 16.6609L61.3069 14.5102L64.4317 13.3675L67.3646 13.3328Z" fill="#4712B9"/>
<path opacity="0.221" d="M67.3634 13.3328C65.6904 13.8835 64.4317 14.8597 64.1047 16.6435L61.2878 14.4962L64.4574 13.3658L67.3634 13.3328Z" fill="#4712B9"/>
<path opacity="0.235" d="M67.3629 13.3328C65.6929 13.8731 64.4305 14.8458 64.0821 16.6261L61.2693 14.4823L64.4843 13.3646L67.3629 13.3328Z" fill="#4712B9"/>
<path opacity="0.25" d="M67.3622 13.3328C65.6947 13.8626 64.4293 14.8313 64.0593 16.6087L61.2513 14.4684L64.5112 13.3629L67.3622 13.3328Z" fill="#4712B9"/>
<path opacity="0.265" d="M67.3611 13.3328C65.6959 13.8522 64.4275 14.8168 64.0361 16.5913L61.2322 14.4551L64.5375 13.3617L67.3611 13.3328Z" fill="#4712B9"/>
<path opacity="0.279" d="M67.3605 13.3328C65.6976 13.8417 64.4263 14.8029 64.0133 16.5739L61.2143 14.4412L64.565 13.36L67.3605 13.3328Z" fill="#4712B9"/>
<path opacity="0.294" d="M67.3598 13.3328C65.6994 13.8313 64.4251 14.7884 63.9906 16.5565L61.1957 14.4273L64.5913 13.3583L67.3598 13.3328Z" fill="#4712B9"/>
<path opacity="0.309" d="M67.3593 13.3328C65.7013 13.8209 64.4234 14.7739 63.9679 16.5386L61.1779 14.4128L64.6188 13.356L67.3593 13.3328Z" fill="#4712B9"/>
<path opacity="0.324" d="M67.358 13.3328C65.703 13.8104 64.4215 14.76 63.9446 16.5212L61.1587 14.3989L64.6445 13.3542L67.358 13.3328Z" fill="#4712B9"/>
<path opacity="0.338" d="M67.3575 13.3328C65.7049 13.8 64.4204 14.7455 63.9219 16.5038L61.1408 14.3855L64.672 13.3531L67.3575 13.3328Z" fill="#4712B9"/>
<path opacity="0.353" d="M67.3568 13.3328C65.7066 13.7896 64.4191 14.7316 63.8997 16.4864L61.1228 14.3716L64.6994 13.3519L67.3568 13.3328Z" fill="#4712B9"/>
<path opacity="0.368" d="M67.3557 13.3328C65.7078 13.7791 64.4174 14.7171 63.8764 16.469L61.1043 14.3577L64.7258 13.3502L67.3557 13.3328Z" fill="#4712B9"/>
<path opacity="0.382" d="M67.355 13.3328C65.7096 13.7693 64.4161 14.7026 63.8537 16.4516L61.0858 14.3438L64.7527 13.3484L67.355 13.3328Z" fill="#4712B9"/>
<path opacity="0.397" d="M67.3545 13.3328C65.7114 13.7589 64.415 14.6887 63.831 16.4342L61.0673 14.3299L64.7796 13.3467L67.3545 13.3328Z" fill="#4712B9"/>
<path opacity="0.412" d="M67.3533 13.3328C65.7132 13.7484 64.4132 14.6742 63.8077 16.4162L61.0487 14.316L64.8059 13.3449L67.3533 13.3328Z" fill="#4712B9"/>
<path opacity="0.426" d="M67.3527 13.3328C65.715 13.738 64.412 14.6597 63.785 16.3989L61.0302 14.302L64.8328 13.3432L67.3527 13.3328Z" fill="#4712B9"/>
<path opacity="0.441" d="M67.3521 13.3328C65.7168 13.7275 64.4108 14.6458 63.7623 16.3815L61.0123 14.2881L64.8597 13.3415L67.3521 13.3328Z" fill="#4712B9"/>
<path opacity="0.456" d="M67.3509 13.3328C65.718 13.7171 64.409 14.6313 63.739 16.3641L60.9932 14.2742L64.886 13.3397L67.3509 13.3328Z" fill="#4712B9"/>
<path opacity="0.471" d="M67.3503 13.3328C65.7198 13.7067 64.4078 14.6174 63.7163 16.3467L60.9752 14.2609L64.9135 13.3386L67.3503 13.3328Z" fill="#4712B9"/>
<path opacity="0.485" d="M67.3497 13.3328C65.7215 13.6962 64.4066 14.6029 63.6935 16.3293L60.9567 14.247L64.9397 13.3374L67.3497 13.3328Z" fill="#4712B9"/>
<path opacity="0.5" d="M67.3485 13.3328C65.7234 13.6858 64.4048 14.5884 63.6703 16.3119L60.9382 14.2331L64.9667 13.3357L67.3485 13.3328Z" fill="#4712B9"/>
<path opacity="0.515" d="M67.3479 13.3328C65.7251 13.6754 64.4036 14.5745 63.6475 16.2945L60.9196 14.2191L64.9929 13.3333L67.3479 13.3328Z" fill="#4712B9"/>
<path opacity="0.529" d="M67.3473 13.3328C65.727 13.6649 64.4025 14.56 63.6248 16.2765L60.9011 14.2046L65.0199 13.3316L67.3473 13.3328Z" fill="#4712B9"/>
<path opacity="0.544" d="M67.3461 13.3328C65.7281 13.6545 64.4006 14.5455 63.6015 16.2591L60.8826 14.1913L65.0468 13.3304L67.3461 13.3328Z" fill="#4712B9"/>
<path opacity="0.559" d="M67.3455 13.3327C65.73 13.6446 64.3989 14.5316 63.5788 16.2417L60.8641 14.1774L65.0731 13.3287L67.3455 13.3327Z" fill="#4712B9"/>
<path opacity="0.574" d="M67.3449 13.3328C65.7317 13.6342 64.3976 14.5171 63.556 16.2244L60.8461 14.1635L65.1005 13.327L67.3449 13.3328Z" fill="#4712B9"/>
<path opacity="0.588" d="M67.3437 13.3327C65.7335 13.6237 64.3958 14.5032 63.5328 16.2069L60.827 14.1495L65.1262 13.3252L67.3437 13.3327Z" fill="#4712B9"/>
<path opacity="0.603" d="M67.3431 13.3327C65.7353 13.6133 64.3946 14.4887 63.51 16.1895L60.809 14.1356L65.1537 13.3235L67.3431 13.3327Z" fill="#4712B9"/>
<path opacity="0.618" d="M67.3425 13.3328C65.7371 13.6029 64.3935 14.4742 63.4874 16.1722L60.7905 14.1223L65.1806 13.3229L67.3425 13.3328Z" fill="#4712B9"/>
<path opacity="0.632" d="M67.3413 13.3328C65.7383 13.5925 64.3917 14.4603 63.464 16.1542L60.772 14.1078L65.2069 13.3206L67.3413 13.3328Z" fill="#4712B9"/>
<path opacity="0.647" d="M67.3407 13.3328C65.7401 13.582 64.3905 14.4458 63.4413 16.1368L60.7535 14.0939L65.2338 13.3188L67.3407 13.3328Z" fill="#4712B9"/>
<path opacity="0.662" d="M67.3401 13.3328C65.7419 13.5716 64.3893 14.4313 63.4192 16.1194L60.7355 14.08L65.2607 13.3171L67.3401 13.3328Z" fill="#4712B9"/>
<path opacity="0.676" d="M67.339 13.3328C65.7437 13.5612 64.3875 14.4174 63.3959 16.102L60.717 14.0661L65.2877 13.3154L67.339 13.3328Z" fill="#4712B9"/>
<path opacity="0.691" d="M67.3383 13.3328C65.7455 13.5507 64.3863 14.4029 63.3732 16.0846L60.6985 14.0528L65.3145 13.3142L67.3383 13.3328Z" fill="#4712B9"/>
<path opacity="0.706" d="M67.3377 13.3328C65.7473 13.5403 64.3851 14.389 63.3505 16.0673L60.6805 14.0388L65.3414 13.3125L67.3377 13.3328Z" fill="#4712B9"/>
<path opacity="0.721" d="M67.3366 13.3328C65.7485 13.5299 64.3833 14.3745 63.3272 16.0499L60.6614 14.0249L65.3677 13.3107L67.3366 13.3328Z" fill="#4712B9"/>
<path opacity="0.735" d="M67.336 13.3328C65.7503 13.52 64.3821 14.36 63.3045 16.0325L60.6435 14.011L65.3946 13.3096L67.336 13.3328Z" fill="#4712B9"/>
<path opacity="0.75" d="M67.3353 13.3328C65.752 13.5096 64.3809 14.3461 63.2817 16.0145L60.6249 13.9971L65.4215 13.3078L67.3353 13.3328Z" fill="#4712B9"/>
<path opacity="0.765" d="M67.3342 13.3328C65.7538 13.4991 64.3791 14.3316 63.2584 15.9971L60.6064 13.9832L65.4484 13.3061L67.3342 13.3328Z" fill="#4712B9"/>
<path opacity="0.779" d="M67.3335 13.3328C65.7556 13.4887 64.3779 14.3171 63.2357 15.9797L60.5879 13.9693L65.4747 13.3044L67.3335 13.3328Z" fill="#4712B9"/>
<path opacity="0.794" d="M67.3329 13.3328C65.7574 13.4783 64.3767 14.3032 63.213 15.9623L60.5699 13.9554L65.5022 13.3026L67.3329 13.3328Z" fill="#4712B9"/>
<path opacity="0.809" d="M67.3318 13.3328C65.7586 13.4678 64.3743 14.2887 63.1897 15.9449L60.5508 13.9415L65.5279 13.3009L67.3318 13.3328Z" fill="#4712B9"/>
<path opacity="0.824" d="M67.3311 13.3328C65.7604 13.4574 64.3731 14.2748 63.167 15.9275L60.5323 13.9281L65.5548 13.2997L67.3311 13.3328Z" fill="#4712B9"/>
<path opacity="0.838" d="M67.3306 13.3328C65.7628 13.447 64.372 14.2603 63.1443 15.9101L60.5144 13.9142L65.5823 13.298L67.3306 13.3328Z" fill="#4712B9"/>
<path opacity="0.853" d="M67.3294 13.3328C65.764 13.4365 64.3701 14.2458 63.1209 15.8922L60.4952 13.8997L65.608 13.2957L67.3294 13.3328Z" fill="#4712B9"/>
<path opacity="0.868" d="M67.3288 13.3328C65.7658 13.4261 64.369 14.2319 63.0983 15.8748L60.4774 13.8858L65.6355 13.2945L67.3288 13.3328Z" fill="#4712B9"/>
<path opacity="0.882" d="M67.3282 13.3328C65.7676 13.4157 64.3678 14.2174 63.0755 15.8574L60.4588 13.8719L65.6618 13.2928L67.3282 13.3328Z" fill="#4712B9"/>
<path opacity="0.897" d="M67.327 13.3328C65.7688 13.4052 64.366 14.2029 63.0523 15.84L60.4403 13.8586L65.6887 13.2916L67.327 13.3328Z" fill="#4712B9"/>
<path opacity="0.912" d="M67.3264 13.3328C65.7706 13.3954 64.3648 14.189 63.0295 15.8226L60.4218 13.8446L65.7156 13.2899L67.3264 13.3328Z" fill="#4712B9"/>
<path opacity="0.926" d="M67.3258 13.3328C65.773 13.3849 64.3636 14.1745 63.0068 15.8052L60.4038 13.8307L65.7425 13.2881L67.3258 13.3328Z" fill="#4712B9"/>
<path opacity="0.941" d="M67.3252 13.3328C65.7747 13.3745 64.3624 14.1606 62.9841 15.7878L60.3853 13.8168L65.7693 13.2864L67.3252 13.3328Z" fill="#4712B9"/>
<path opacity="0.956" d="M67.324 13.3328C65.776 13.3641 64.3606 14.1461 62.9614 15.7704L60.3668 13.8035L65.7957 13.2852L67.324 13.3328Z" fill="#4712B9"/>
<path opacity="0.971" d="M67.3234 13.3328C65.7777 13.3536 64.3594 14.1316 62.9387 15.7525L60.3488 13.789L65.8232 13.2829L67.3234 13.3328Z" fill="#4712B9"/>
<path opacity="0.985" d="M67.325 13.333C65.7817 13.3435 64.3604 14.118 62.9181 15.7353L60.3325 13.7753L65.8522 13.282L67.325 13.333Z" fill="#4712B9"/>
<path d="M67.3216 13.3328C65.7807 13.3328 64.3564 14.1032 62.8926 15.7177L60.3118 13.7612L65.8764 13.28L67.3216 13.3328Z" fill="#4712B9"/>
<path opacity="0.091" d="M61.2418 10.0957V12.891L67.2971 13.3258C64.3122 12.7403 62.1695 10.0841 62.399 7.06146C62.3111 8.20117 61.8909 9.23827 61.2418 10.0957Z" fill="url(#paint3_linear)"/>
<path opacity="0.182" d="M61.2418 9.99534V12.8881L67.2386 13.3188C64.2536 12.7333 62.1109 10.0771 62.3404 7.05447C62.2561 8.15534 61.8575 9.1594 61.2418 9.99534Z" fill="url(#paint4_linear)"/>
<path opacity="0.273" d="M61.2418 9.89508V12.8852L67.18 13.3113C64.1951 12.7258 62.0523 10.0696 62.2818 7.04697C62.2005 8.10958 61.824 9.08117 61.2418 9.89508Z" fill="url(#paint5_linear)"/>
<path opacity="0.364" d="M61.2418 9.79537V12.8829L67.1214 13.3049C64.1365 12.7194 61.9937 10.0632 62.2232 7.04059C62.1449 8.06378 61.7905 9.00233 61.2418 9.79537Z" fill="url(#paint6_linear)"/>
<path opacity="0.455" d="M61.2418 9.69508V12.88L67.0628 13.298C64.0779 12.7125 61.9352 10.0562 62.1647 7.03363C62.0894 8.01798 61.757 8.92349 61.2418 9.69508Z" fill="url(#paint7_linear)"/>
<path opacity="0.545" d="M61.2418 9.59479V12.8765L67.0043 13.2904C64.0193 12.7049 61.8766 10.0487 62.1061 7.02609C62.0338 7.97218 61.7236 8.84522 61.2418 9.59479Z" fill="url(#paint8_linear)"/>
<path opacity="0.636" d="M61.2418 9.49508V12.8742L66.9463 13.2835C63.9614 12.698 61.8186 10.0417 62.0481 7.01913C61.9782 7.92696 61.6901 8.76638 61.2418 9.49508Z" fill="url(#paint9_linear)"/>
<path opacity="0.727" d="M61.2418 9.39478V12.8713L66.8877 13.2765C63.9028 12.691 61.76 10.0348 61.9895 7.01218C61.9226 7.88116 61.6566 8.68812 61.2418 9.39478Z" fill="url(#paint10_linear)"/>
<path opacity="0.818" d="M61.2418 9.29657V12.8705L66.8291 13.2716C63.8442 12.6861 61.7015 10.0299 61.931 7.00729C61.867 7.83744 61.6232 8.61135 61.2418 9.29657Z" fill="url(#paint11_linear)"/>
<path opacity="0.909" d="M61.2418 9.19591V12.8672L66.7706 13.2643C63.7856 12.6788 61.6429 10.0226 61.8724 6.99997C61.8114 7.79069 61.5897 8.53156 61.2418 9.19591Z" fill="url(#paint12_linear)"/>
<path d="M61.2418 9.09449V12.8632L66.712 13.2557C63.7271 12.6701 61.5843 10.0139 61.8138 6.9913C61.7558 7.74377 61.5562 8.45217 61.2418 9.09449Z" fill="url(#paint13_linear)"/>
<path d="M61.2418 7.73624C61.2436 10.8261 63.8256 13.331 67.0114 13.3322C63.8256 13.3339 61.243 15.8383 61.2418 18.9281C61.24 15.8383 58.6579 13.3333 55.4722 13.3322C58.6579 13.331 61.2406 10.8261 61.2418 7.73624Z" fill="#FFC076"/>
<path d="M61.2418 8.08929C61.243 10.9844 63.6625 13.331 66.6474 13.3322C63.6625 13.3334 61.243 15.68 61.2418 18.5751C61.2406 15.68 58.8211 13.3334 55.8362 13.3322C58.8211 13.331 61.2406 10.9844 61.2418 8.08929Z" fill="#FFC076"/>
<path d="M61.2418 8.44232C61.243 11.1426 63.4999 13.331 66.284 13.3328C63.4999 13.3339 61.2436 15.5229 61.2418 18.2232C61.2406 15.5229 58.9837 13.3345 56.1996 13.3328C58.9837 13.331 61.2406 11.1426 61.2418 8.44232Z" fill="#FFC076"/>
<path d="M61.2418 8.79538C61.243 11.3009 63.3367 13.3316 65.92 13.3328C63.3367 13.3339 61.243 15.3647 61.2418 17.8702C61.2406 15.3641 59.1468 13.3334 56.5641 13.3322C59.1468 13.331 61.2406 11.3003 61.2418 8.79538Z" fill="#FFC076"/>
<path d="M61.2418 9.14841C61.243 11.4586 63.1736 13.3316 65.556 13.3328C63.1742 13.3339 61.243 15.2064 61.2418 17.5171C61.2406 15.2064 59.31 13.3333 56.9276 13.3322C59.31 13.3316 61.2406 11.4586 61.2418 9.14841Z" fill="#FFC076"/>
<path d="M61.2418 9.50146C61.243 11.6168 63.011 13.3316 65.192 13.3328C63.011 13.3339 61.243 15.0487 61.2418 17.1641C61.2406 15.0487 59.4726 13.3339 57.2916 13.3328C59.4732 13.3316 61.2406 11.6168 61.2418 9.50146Z" fill="#FFC076"/>
<path d="M61.2418 9.85449C61.243 11.7751 62.8478 13.3316 64.828 13.3328C62.8478 13.3339 61.243 14.8904 61.2418 16.811C61.2406 14.8904 59.6358 13.3339 57.6556 13.3328C59.6358 13.3316 61.2412 11.7751 61.2418 9.85449Z" fill="#FFC076"/>
<path d="M61.2418 10.207C61.2424 11.9328 62.6846 13.3316 64.464 13.3322C62.6846 13.3328 61.2424 14.7316 61.2418 16.4574C61.2412 14.7316 59.7989 13.3328 58.0196 13.3322C59.7989 13.3316 61.2412 11.9328 61.2418 10.207Z" fill="#FFC076"/>
<path d="M61.2418 10.56C61.2424 12.091 62.5221 13.3316 64.1 13.3322C62.5221 13.3333 61.2424 14.5739 61.2418 16.1043C61.2412 14.5739 59.9621 13.3333 58.3836 13.3322C59.9621 13.3316 61.2412 12.091 61.2418 10.56Z" fill="#FFC076"/>
<path d="M61.2418 10.9131C61.2424 12.2487 62.3589 13.3316 63.736 13.3322C62.3589 13.3328 61.2424 14.4157 61.2418 15.7513C61.2412 14.4157 60.1247 13.3333 58.7476 13.3322C60.1247 13.3316 61.2412 12.2493 61.2418 10.9131Z" fill="#FFC076"/>
<path d="M61.2418 11.2661C61.2424 12.407 62.1957 13.3316 63.372 13.3322C62.1957 13.3327 61.2424 14.2574 61.2418 15.3983C61.2412 14.2574 60.2878 13.3327 59.1116 13.3322C60.2878 13.3316 61.2412 12.407 61.2418 11.2661Z" fill="url(#paint14_radial)"/>
<defs>
<radialGradient id="paint0_radial" cx="0" cy="0" r="1" gradientUnits="userSpaceOnUse" gradientTransform="translate(64.1484 6.20349) scale(14.0334 13.611)">
<stop stop-color="#B592FF"/>
<stop offset="0.126" stop-color="#9B6BFF"/>
<stop offset="0.714" stop-color="#9766FF"/>
<stop offset="1" stop-color="#783BF9"/>
</radialGradient>
<linearGradient id="paint1_linear" x1="68.5822" y1="2.60581" x2="68.1604" y2="18.7908" gradientUnits="userSpaceOnUse">
<stop offset="0.147" stop-color="#783BF9" stop-opacity="0"/>
<stop offset="0.845" stop-color="#783BF9"/>
</linearGradient>
<radialGradient id="paint2_radial" cx="0" cy="0" r="1" gradientUnits="userSpaceOnUse" gradientTransform="translate(63.1624 5.46011) rotate(-33.7286) scale(4.49244 2.99022)">
<stop offset="0.129" stop-color="#D0BAFF"/>
<stop offset="0.834" stop-color="#D0BAFF" stop-opacity="0"/>
</radialGradient>
<linearGradient id="paint3_linear" x1="63.8632" y1="12.2406" x2="59.6231" y2="7.17531" gradientUnits="userSpaceOnUse">
<stop stop-color="#4712B9"/>
<stop offset="0.235" stop-color="#4712B9" stop-opacity="0.232"/>
<stop offset="0.597" stop-color="#4712B9" stop-opacity="0"/>
</linearGradient>
<linearGradient id="paint4_linear" x1="63.8379" y1="12.2336" x2="59.5907" y2="7.20896" gradientUnits="userSpaceOnUse">
<stop stop-color="#4712B9"/>
<stop offset="0.235" stop-color="#4712B9" stop-opacity="0.232"/>
<stop offset="0.597" stop-color="#4712B9" stop-opacity="0"/>
</linearGradient>
<linearGradient id="paint5_linear" x1="63.8125" y1="12.2261" x2="59.5586" y2="7.24263" gradientUnits="userSpaceOnUse">
<stop stop-color="#4712B9"/>
<stop offset="0.235" stop-color="#4712B9" stop-opacity="0.232"/>
<stop offset="0.597" stop-color="#4712B9" stop-opacity="0"/>
</linearGradient>
<linearGradient id="paint6_linear" x1="63.7872" y1="12.2197" x2="59.5268" y2="7.27796" gradientUnits="userSpaceOnUse">
<stop stop-color="#4712B9"/>
<stop offset="0.235" stop-color="#4712B9" stop-opacity="0.232"/>
<stop offset="0.597" stop-color="#4712B9" stop-opacity="0"/>
</linearGradient>
<linearGradient id="paint7_linear" x1="63.7618" y1="12.2128" x2="59.4954" y2="7.31325" gradientUnits="userSpaceOnUse">
<stop stop-color="#4712B9"/>
<stop offset="0.235" stop-color="#4712B9" stop-opacity="0.232"/>
<stop offset="0.597" stop-color="#4712B9" stop-opacity="0"/>
</linearGradient>
<linearGradient id="paint8_linear" x1="63.7365" y1="12.2052" x2="59.4643" y2="7.34851" gradientUnits="userSpaceOnUse">
<stop stop-color="#4712B9"/>
<stop offset="0.235" stop-color="#4712B9" stop-opacity="0.232"/>
<stop offset="0.597" stop-color="#4712B9" stop-opacity="0"/>
</linearGradient>
<linearGradient id="paint9_linear" x1="63.7114" y1="12.1983" x2="59.4339" y2="7.38446" gradientUnits="userSpaceOnUse">
<stop stop-color="#4712B9"/>
<stop offset="0.235" stop-color="#4712B9" stop-opacity="0.232"/>
<stop offset="0.597" stop-color="#4712B9" stop-opacity="0"/>
</linearGradient>
<linearGradient id="paint10_linear" x1="63.686" y1="12.1913" x2="59.4036" y2="7.42139" gradientUnits="userSpaceOnUse">
<stop stop-color="#4712B9"/>
<stop offset="0.235" stop-color="#4712B9" stop-opacity="0.232"/>
<stop offset="0.597" stop-color="#4712B9" stop-opacity="0"/>
</linearGradient>
<linearGradient id="paint11_linear" x1="63.6606" y1="12.1864" x2="59.3736" y2="7.46096" gradientUnits="userSpaceOnUse">
<stop stop-color="#4712B9"/>
<stop offset="0.235" stop-color="#4712B9" stop-opacity="0.232"/>
<stop offset="0.597" stop-color="#4712B9" stop-opacity="0"/>
</linearGradient>
<linearGradient id="paint12_linear" x1="63.6353" y1="12.1791" x2="59.3441" y2="7.49865" gradientUnits="userSpaceOnUse">
<stop stop-color="#4712B9"/>
<stop offset="0.235" stop-color="#4712B9" stop-opacity="0.232"/>
<stop offset="0.597" stop-color="#4712B9" stop-opacity="0"/>
</linearGradient>
<linearGradient id="paint13_linear" x1="63.6099" y1="12.1704" x2="59.315" y2="7.53556" gradientUnits="userSpaceOnUse">
<stop stop-color="#4712B9"/>
<stop offset="0.235" stop-color="#4712B9" stop-opacity="0.232"/>
<stop offset="0.597" stop-color="#4712B9" stop-opacity="0"/>
</linearGradient>
<radialGradient id="paint14_radial" cx="0" cy="0" r="1" gradientUnits="userSpaceOnUse" gradientTransform="translate(61.2418 13.3322) rotate(90) scale(2.06609 2.13021)">
<stop stop-color="white"/>
<stop offset="1" stop-color="#FFC076" stop-opacity="0"/>
</radialGradient>
</defs>
</svg>
